<svg xmlns="http://www.w3.org/2000/svg" width="24" height="24" viewBox="0 0 24 24" fill="none" class="injected-svg" data-src="/icons/next-stroke-rounded.svg" xmlns:xlink="http://www.w3.org/1999/xlink" role="img" color="#000000">
<path d="M15.9351 12.6258C15.6807 13.8374 14.327 14.7077 11.6198 16.4481C8.67528 18.3411 7.20303 19.2876 6.01052 18.9229C5.60662 18.7994 5.23463 18.5823 4.92227 18.2876C4 17.4178 4 15.6118 4 12C4 8.38816 4 6.58224 4.92227 5.71235C5.23463 5.41773 5.60662 5.20057 6.01052 5.07707C7.20304 4.71243 8.67528 5.6589 11.6198 7.55186C14.327 9.29233 15.6807 10.1626 15.9351 11.3742C16.0216 11.7865 16.0216 12.2135 15.9351 12.6258Z" stroke="#000000" stroke-width="1.5" stroke-linejoin="round"></path>
<path d="M20 5V19" stroke="#000000" stroke-width="1.5" stroke-linecap="round"></path>
</svg>